<svg width="30" height="30" viewBox="0 0 30 30" fill="none" xmlns="http://www.w3.org/2000/svg">
<path d="M28.3734 8.77031C28.2853 8.66595 28.1755 8.58209 28.0516 8.5246C27.9278 8.46712 27.7928 8.43739 27.6562 8.4375H22.8984C22.6716 6.75157 21.8413 5.20504 20.5613 4.08454C19.2814 2.96405 17.6386 2.34557 15.9375 2.34375H14.0625C12.3614 2.34557 10.7186 2.96405 9.43866 4.08454C8.1587 5.20504 7.32837 6.75157 7.10156 8.4375H2.34375C2.20718 8.43739 2.07223 8.46712 1.94835 8.5246C1.82447 8.58209 1.71465 8.66595 1.62656 8.77031C1.53542 8.87428 1.46841 8.99711 1.43032 9.13002C1.39223 9.26292 1.38401 9.40261 1.40625 9.53906L3.90468 23.7422C4.03257 24.4485 4.40533 25.0871 4.95744 25.5457C5.50955 26.0044 6.20567 26.2538 6.92343 26.25H23.0766C23.7926 26.2503 24.4859 25.9987 25.0352 25.5394C25.5845 25.0801 25.9548 24.4423 26.0812 23.7375L28.5937 9.53906C28.616 9.40261 28.6078 9.26292 28.5697 9.13002C28.5316 8.99711 28.4646 8.87428 28.3734 8.77031ZM14.0625 4.21875H15.9375C17.1419 4.21948 18.308 4.64177 19.2335 5.41236C20.1591 6.18295 20.7857 7.25322 21.0047 8.4375H8.99531C9.21428 7.25322 9.8409 6.18295 10.7665 5.41236C11.692 4.64177 12.8581 4.21948 14.0625 4.21875ZM24.2391 23.4094C24.1887 23.6808 24.0448 23.926 23.8324 24.1024C23.6201 24.2788 23.3526 24.3753 23.0766 24.375H6.92343C6.65167 24.3772 6.38759 24.2849 6.17638 24.1139C5.96517 23.9429 5.81997 23.7038 5.76562 23.4375L3.45937 10.3125H26.5406L24.2391 23.4094Z" fill="white"/>
</svg>
