<svg width="25" height="25" viewBox="0 0 25 25" fill="none" xmlns="http://www.w3.org/2000/svg">
<path fill-rule="evenodd" clip-rule="evenodd" d="M5.61728 3.96262C5.61728 1.77384 7.44101 0 9.69136 0H15.3086C17.559 0 19.3827 1.77384 19.3827 3.96262V4.78229H23.7359C24.4351 4.78229 25 5.33174 25 6.0118C25 6.69059 24.4351 7.24131 23.7359 7.24131H22.1914V19.6721C22.1914 22.6153 19.7382 25 16.7136 25H8.28637C5.26175 25 2.80864 22.6153 2.80864 19.6721V7.24131H1.26409C0.564896 7.24131 0 6.69059 0 6.0118C0 5.33174 0.564896 4.78229 1.26409 4.78229H5.61728V3.96262ZM8.14546 4.78229H16.8545V3.96262C16.8545 3.13272 16.1619 2.45905 15.3087 2.45905H9.69139C8.83815 2.45905 8.14553 3.13272 8.14553 3.96262L8.14546 4.78229ZM6.88137 7.24131H5.33682V19.6721C5.33682 21.2564 6.65754 22.541 8.28637 22.541H16.7136C18.3425 22.541 19.6632 21.2564 19.6632 19.6721V7.24131H6.88137Z" fill="black"/>
</svg>
